<?xml version="1.0" standalone="no"?>
<!DOCTYPE svg PUBLIC "-//W3C//DTD SVG 20010904//EN"
 "http://www.w3.org/TR/2001/REC-SVG-20010904/DTD/svg10.dtd">
<svg version="1.0" xmlns="http://www.w3.org/2000/svg"
 width="260.000000pt" height="260.000000pt" viewBox="0 0 260.000000 260.000000"
 preserveAspectRatio="xMidYMid meet">
<metadata>
Created by potrace 1.11, written by Peter Selinger 2001-2013
</metadata>
<g transform="translate(0.000000,260.000000) scale(0.100000,-0.100000)"
fill="#000000" stroke="none">
<path d="M0 1300 l0 -1300 1300 0 1300 0 0 1300 0 1300 -1300 0 -1300 0 0
-1300z m1946 559 c210 -29 307 -121 291 -274 -11 -111 -85 -195 -211 -241
l-48 -18 42 -16 c103 -40 145 -104 138 -211 -15 -199 -194 -341 -462 -365
-127 -11 -345 24 -437 72 l-26 13 24 113 c14 62 28 116 32 120 4 5 43 -10 86
-32 44 -22 107 -47 140 -55 121 -31 247 -11 312 49 30 27 36 41 40 83 10 94
-26 119 -186 129 -63 5 -101 11 -101 18 1 20 38 167 43 173 3 3 43 7 89 9 154
8 218 36 233 103 28 129 -196 163 -439 65 -37 -15 -70 -24 -73 -20 -5 5 35
224 43 234 6 8 157 42 220 51 99 12 162 12 250 0z m-1056 -33 c0 -7 -43 -197
-95 -421 -52 -225 -95 -414 -95 -422 0 -10 47 -13 245 -13 227 0 245 -1 245
-17 -1 -23 -37 -183 -43 -189 -5 -5 -778 -6 -783 -1 -2 1 28 137 67 302 38
165 92 399 120 520 27 121 54 229 58 240 8 19 16 20 145 17 104 -2 136 -6 136
-16z"/>
</g>
</svg>
