<?xml version="1.0" encoding="utf-8"?>
<!-- Generator: Adobe Illustrator 19.2.1, SVG Export Plug-In . SVG Version: 6.00 Build 0)  -->
<svg version="1.1" id="Layer_1" xmlns="http://www.w3.org/2000/svg" xmlns:xlink="http://www.w3.org/1999/xlink" x="0px" y="0px"
	 viewBox="0 0 77 77" style="enable-background:new 0 0 77 77;" xml:space="preserve">
<style type="text/css">
	.st0{fill:none;}
	.st1{fill:#333333;}
</style>
<path class="st0" d="M14.5,14.5h48v48h-48V14.5z"/>
<path class="st1" d="M56.5,18.5h-36c-2.2,0-4,1.8-4,4v24c0,2.2,1.8,4,4,4h14v4h-4v4h16v-4h-4v-4h14c2.2,0,4-1.8,4-4v-24
	C60.5,20.3,58.7,18.5,56.5,18.5z M56.5,46.5h-36v-24h36V46.5z"/>
<path class="st1" d="M38.5,3C58.1,3,74,18.9,74,38.5S58.1,74,38.5,74S3,58.1,3,38.5S18.9,3,38.5,3 M38.5,0C17.2,0,0,17.2,0,38.5
	S17.2,77,38.5,77S77,59.8,77,38.5S59.8,0,38.5,0L38.5,0z"/>
</svg>
