<?xml version="1.0" encoding="utf-8"?>
<!-- Generator: Adobe Illustrator 19.2.1, SVG Export Plug-In . SVG Version: 6.00 Build 0)  -->
<svg version="1.1" id="Layer_1" xmlns="http://www.w3.org/2000/svg" xmlns:xlink="http://www.w3.org/1999/xlink" x="0px" y="0px"
	 viewBox="0 0 77 77" style="enable-background:new 0 0 77 77;" xml:space="preserve">
<style type="text/css">
	.st0{fill:#333333;}
	.st1{fill:none;}
</style>
<path class="st0" d="M52.5,32.5h-8v-12h-12v12h-8l14,14L52.5,32.5z M24.5,50.5v4h28v-4H24.5z"/>
<path class="st1" d="M14.5,14.5h48v48h-48V14.5z"/>
<path class="st0" d="M38.5,3C58.1,3,74,18.9,74,38.5S58.1,74,38.5,74S3,58.1,3,38.5S18.9,3,38.5,3 M38.5,0C17.2,0,0,17.2,0,38.5
	S17.2,77,38.5,77S77,59.8,77,38.5S59.8,0,38.5,0L38.5,0z"/>
</svg>
