<?xml version="1.0" encoding="utf-8"?>
<!-- Generator: Adobe Illustrator 19.2.1, SVG Export Plug-In . SVG Version: 6.00 Build 0)  -->
<svg version="1.1" id="Layer_1" xmlns="http://www.w3.org/2000/svg" xmlns:xlink="http://www.w3.org/1999/xlink" x="0px" y="0px"
	 viewBox="0 0 77 77" style="enable-background:new 0 0 77 77;" xml:space="preserve">
<style type="text/css">
	.st0{clip-path:url(#SVGID_2_);fill:#333333;}
	.st1{fill:#333333;}
</style>
<g>
	<g>
		<defs>
			<rect id="SVGID_1_" x="14.5" y="14.5" width="48" height="48"/>
		</defs>
		<clipPath id="SVGID_2_">
			<use xlink:href="#SVGID_1_"  style="overflow:visible;"/>
		</clipPath>
		<path class="st0" d="M60.5,30.5c0,2.2-1.8,4-4,4c-0.4,0-0.7,0-1-0.1l-7.1,7.1c0.1,0.3,0.1,0.7,0.1,1c0,2.2-1.8,4-4,4s-4-1.8-4-4
			c0-0.4,0-0.7,0.1-1l-5.1-5.1c-0.3,0.1-0.7,0.1-1,0.1c-0.4,0-0.7,0-1-0.1l-9.1,9.1c0.1,0.3,0.1,0.7,0.1,1c0,2.2-1.8,4-4,4
			s-4-1.8-4-4s1.8-4,4-4c0.4,0,0.7,0,1,0.1l9.1-9.1c-0.1-0.3-0.1-0.7-0.1-1c0-2.2,1.8-4,4-4s4,1.8,4,4c0,0.4,0,0.7-0.1,1l5.1,5.1
			c0.3-0.1,0.7-0.1,1-0.1c0.4,0,0.7,0,1,0.1l7.1-7.1c-0.1-0.3-0.1-0.7-0.1-1c0-2.2,1.8-4,4-4S60.5,28.3,60.5,30.5z"/>
	</g>
</g>
<path class="st1" d="M38.5,3C58.1,3,74,18.9,74,38.5S58.1,74,38.5,74S3,58.1,3,38.5S18.9,3,38.5,3 M38.5,0C17.2,0,0,17.2,0,38.5
	S17.2,77,38.5,77S77,59.8,77,38.5S59.8,0,38.5,0L38.5,0z"/>
</svg>
