<svg id="Layer_1" data-name="Layer 1" xmlns="http://www.w3.org/2000/svg" viewBox="0 0 250 250"><defs><style>.cls-1{fill:gold;}.cls-2{fill:#333;}.cls-3{fill:#fff;}</style></defs><title>whyl3n</title><circle class="cls-1" cx="75.97" cy="189.67" r="9.88"/><path class="cls-2" d="M76,201.55a11.88,11.88,0,1,1,11.88-11.88A11.89,11.89,0,0,1,76,201.55Zm0-19.76a7.88,7.88,0,1,0,7.88,7.88A7.89,7.89,0,0,0,76,181.79Z"/><circle class="cls-1" cx="125" cy="189.67" r="9.88"/><path class="cls-2" d="M125,201.55a11.88,11.88,0,1,1,11.88-11.88A11.89,11.89,0,0,1,125,201.55Zm0-19.76a7.88,7.88,0,1,0,7.88,7.88A7.89,7.89,0,0,0,125,181.79Z"/><circle class="cls-1" cx="174.14" cy="189.67" r="9.88"/><path class="cls-2" d="M174.13,201.55A11.88,11.88,0,1,1,186,189.67,11.89,11.89,0,0,1,174.13,201.55Zm0-19.76a7.88,7.88,0,1,0,7.88,7.88A7.89,7.89,0,0,0,174.13,181.79Z"/><rect class="cls-2" x="85.85" y="187.67" width="29.27" height="4"/><rect class="cls-2" x="134.88" y="187.67" width="29.38" height="4"/><rect class="cls-2" x="123" y="63.84" width="4" height="115.94"/><rect class="cls-1" x="59.2" y="119.06" width="131.6" height="20.56" rx="10.28" ry="10.28"/><path class="cls-2" d="M180.52,141.62h-111a12.28,12.28,0,1,1,0-24.56h111A12.28,12.28,0,0,1,180.52,141.62Zm-111-20.56a8.28,8.28,0,1,0,0,16.56h111a8.28,8.28,0,0,0,0-16.56h-111Z"/><path class="cls-2" d="M133.63,131.34H76a2,2,0,1,1,0-4h57.66A2,2,0,1,1,133.63,131.34Z"/><circle class="cls-2" cx="175.99" cy="129.34" r="1.85"/><rect class="cls-3" x="59.2" y="91.45" width="131.6" height="20.56" rx="10.28" ry="10.28"/><path class="cls-2" d="M180.52,114h-111a12.28,12.28,0,1,1,0-24.56h111A12.28,12.28,0,0,1,180.52,114Zm-111-20.56a8.28,8.28,0,1,0,0,16.56h111a8.28,8.28,0,0,0,0-16.56h-111Z"/><path class="cls-2" d="M133.63,103.73H76a2,2,0,0,1,0-4h57.66A2,2,0,0,1,133.63,103.73Z"/><circle class="cls-2" cx="175.99" cy="101.73" r="1.85"/><rect class="cls-3" x="59.2" y="63.84" width="131.6" height="20.56" rx="10.28" ry="10.28"/><path class="cls-2" d="M180.52,86.41h-111a12.28,12.28,0,1,1,0-24.56h111A12.28,12.28,0,0,1,180.52,86.41Zm-111-20.56a8.28,8.28,0,1,0,0,16.56h111a8.28,8.28,0,0,0,0-16.56h-111Z"/><path class="cls-2" d="M133.63,76.12H76a2,2,0,0,1,0-4h57.66A2,2,0,0,1,133.63,76.12Z"/><circle class="cls-2" cx="175.99" cy="74.12" r="1.85"/><rect class="cls-3" x="59.2" y="146.66" width="131.6" height="20.56" rx="10.28" ry="10.28"/><path class="cls-2" d="M180.52,169.22h-111a12.28,12.28,0,1,1,0-24.56h111A12.28,12.28,0,0,1,180.52,169.22Zm-111-20.56a8.28,8.28,0,1,0,0,16.56h111a8.28,8.28,0,0,0,0-16.56h-111Z"/><path class="cls-2" d="M133.63,158.94H76a2,2,0,0,1,0-4h57.66A2,2,0,0,1,133.63,158.94Z"/><circle class="cls-2" cx="175.99" cy="156.94" r="1.85"/></svg>