<svg id="Layer_1" data-name="Layer 1" xmlns="http://www.w3.org/2000/svg" viewBox="0 0 250 250"><defs><style>.cls-1{fill:#333;}.cls-2{fill:gold;}</style></defs><title>whyl3n</title><path class="cls-1" d="M102.12,202a2,2,0,0,1-1.41-.59L55.19,155.86a2,2,0,0,1,0-2.83l71.66-71.37a2,2,0,0,1,1.64-.57l26.1,3a2,2,0,0,1,1.18.57l16.12,16.12a2,2,0,0,1,.57,1.15l1.35,10.23a2,2,0,1,1-4,.52l-1.26-9.55L153.43,88,129,85.17,59.43,154.45l42.69,42.69,69.29-69.43-0.7-6.09a2,2,0,0,1,4-.46l0.81,7.05a2,2,0,0,1-.57,1.64l-71.39,71.53a2,2,0,0,1-1.42.59h0Z"/><path class="cls-1" d="M150.62,118.23a12.16,12.16,0,1,1,12.16-12.16,12.3,12.3,0,0,1-.25,2.45,2,2,0,0,1-3.92-.8,8.16,8.16,0,1,0-8,6.51,8.11,8.11,0,0,0,4.58-1.4,2,2,0,1,1,2.25,3.31A12.09,12.09,0,0,1,150.62,118.23Z"/><path class="cls-1" d="M174.71,122.41a29.24,29.24,0,0,1-25.54-15,2,2,0,1,1,3.5-1.94,25.2,25.2,0,1,0,.32-25,2,2,0,1,1-3.45-2A29.2,29.2,0,1,1,174.71,122.41Z"/><path class="cls-2" d="M125.76,126.64a17.07,17.07,0,0,0-24.85,19.23,13.1,13.1,0,0,0-5.24,17.6,8.47,8.47,0,0,0,11.55,12.37l0,0,33-33A10.89,10.89,0,0,0,125.76,126.64Z"/><path class="cls-1" d="M101.76,179.83a10.45,10.45,0,0,1-8.44-16.67,15.1,15.1,0,0,1,5.34-18.25,19.07,19.07,0,0,1,26.93-20.62,12.89,12.89,0,0,1,16.11,19.94l-34.45,34.45-0.25-.25A10.48,10.48,0,0,1,101.76,179.83Zm15.69-53.36a15.06,15.06,0,0,0-14.6,18.89l0.39,1.5-1.36.75a11.1,11.1,0,0,0-4.44,14.91l0.68,1.29-1,1a6.47,6.47,0,0,0,8.83,9.45l0.23-.19,32.72-32.71A8.89,8.89,0,0,0,127,128.19L126,129l-1.18-.66A15,15,0,0,0,117.45,126.47Z"/></svg>