<svg id="Layer_1" data-name="Layer 1" xmlns="http://www.w3.org/2000/svg" viewBox="0 0 250 250"><defs><style>.cls-1{fill:gold;}.cls-2{fill:#333;}</style></defs><title>whyl3n</title><g id="_Group_" data-name="&lt;Group&gt;"><path class="cls-1" d="M132.83,97.19a41.5,41.5,0,1,1-41.5,41.5A41.54,41.54,0,0,1,132.83,97.19Zm36.9,41.5a36.9,36.9,0,1,0-36.9,36.89A36.94,36.94,0,0,0,169.73,138.69Z"/><path class="cls-2" d="M132.83,93.39a45.3,45.3,0,1,1-45.3,45.3A45.35,45.35,0,0,1,132.83,93.39Zm41.5,45.3a41.5,41.5,0,1,0-41.5,41.5A41.54,41.54,0,0,0,174.33,138.69Z"/><path class="cls-2" d="M159.43,136.79a1.9,1.9,0,1,1-1.9,1.9A1.82,1.82,0,0,1,159.43,136.79Z"/><path class="cls-2" d="M132.83,101.79a36.9,36.9,0,1,1-36.9,36.9A36.94,36.94,0,0,1,132.83,101.79Zm33.1,36.9a33.1,33.1,0,1,0-33.1,33.1A33.14,33.14,0,0,0,165.93,138.69Z"/><path class="cls-2" d="M151,136.79a1.9,1.9,0,1,1,0,3.8H138.65a6.37,6.37,0,0,1-5.82,4.2,6.11,6.11,0,0,1-6.1-6.1,6.36,6.36,0,0,1,4.2-5.83V120.49a1.9,1.9,0,0,1,3.8,0v12.37a6.44,6.44,0,0,1,3.92,3.93H151Zm-15.9,1.9a2.3,2.3,0,1,0-2.3,2.3A2.31,2.31,0,0,0,135.13,138.69Z"/><path class="cls-2" d="M132.83,110.19a1.9,1.9,0,1,1-1.9,1.9A1.82,1.82,0,0,1,132.83,110.19Z"/><path class="cls-2" d="M132.83,163.39a1.9,1.9,0,1,1-1.9,1.9A1.82,1.82,0,0,1,132.83,163.39Z"/><path class="cls-2" d="M106.23,136.79a1.9,1.9,0,1,1-1.9,1.9A1.82,1.82,0,0,1,106.23,136.79Z"/><path class="cls-2" d="M96.93,174.74a2,2,0,0,1-1.52-.7A101.48,101.48,0,0,0,84,163.37c-12.36-10.53-26.38-22.47-23-45.49a2,2,0,0,1,3.82-.49c2.64,6.27,5.73,11,11,13.21-2.51-3.19-4.08-7.07-5.71-11.1-3.21-7.94-6.53-16.15-17.65-21.35a2,2,0,0,1,.54-3.79C66.83,92.23,71.14,95.66,75.31,99A21.62,21.62,0,0,0,79.93,102,38.68,38.68,0,0,1,76,95.47c-3.37-6.66-6.55-12.94-25.1-15a2,2,0,0,1-.79-3.71c19.19-11.3,35.85-2.41,48,4.08,1.93,1,3.76,2,5.45,2.82-2.78-3.8-4.67-9.07-3.75-17.83a2,2,0,0,1,3.58-1c4.92,6.42,11.31,7.24,22.91,8.73,1.94,0.25,4,.51,6.21.83,18.42,2.6,34,16.31,46.37,40.75a2,2,0,0,1-3.57,1.8C163.61,93.7,149,80.71,132,78.3c-2.19-.31-4.24-0.57-6.16-0.82-9.71-1.25-16.72-2.15-22.2-6.72,0.21,8.53,4.09,12,8.17,15.58a2,2,0,0,1-1.33,3.5h0c-4-.07-8.7-2.59-14.16-5.51-10.64-5.68-23.6-12.6-38.5-6.88,15.2,3.11,18.7,10,21.83,16.21,1.92,3.79,3.73,7.37,8.2,10.08a2,2,0,0,1-1.1,3.71c-7.46-.24-10.87-2.95-13.88-5.34s-5.77-4.58-13-4.4C68,103.47,71.12,111.11,73.9,118c2.48,6.13,4.62,11.42,10,14.12a2,2,0,0,1-.9,3.79h0c-9.45-.08-14.85-4.63-18.44-10.31C65,141.87,76,151.23,86.64,160.32a104.19,104.19,0,0,1,11.81,11.12A2,2,0,0,1,96.93,174.74Z"/></g></svg>