<svg id="Layer_1" data-name="Layer 1" xmlns="http://www.w3.org/2000/svg" viewBox="0 0 250 250"><defs><style>.cls-1{fill:gold;}.cls-2{fill:#333;}</style></defs><title>whyl3n</title><path class="cls-1" d="M53.45,146.53V132l25.36-27.53c2.56-2.75,3.54-4.52,3.54-7.47,0-3.83-2.16-6.49-6.29-6.49-2.95,0-6.49,1.38-6.49,6.78H53.45c0-13.76,10.42-21.33,22.61-21.33,13,0,22.42,8,22.42,21.14,0,7.37-3,11.31-8.65,17.21L73.11,132H98.48v14.55h-45Z"/><path class="cls-2" d="M100.48,148.53h-49V131.2l25.89-28.1c2.36-2.54,3-3.86,3-6.12,0-2-.74-4.49-4.29-4.49-4.49,0-4.49,3.6-4.49,4.78v2H51.45v-2c0-13.74,10.12-23.33,24.61-23.33s24.42,9.3,24.42,23.14c0,8.28-3.64,12.73-9.2,18.58L77.75,130h22.73v18.55Zm-45-4h41V134h-28l19.9-21.07c5.51-5.8,8.11-9.25,8.11-15.83,0-11.62-8-19.14-20.42-19.14-9.73,0-19.55,5.38-20.53,17.33h12.2c0.81-5,4.68-6.78,8.33-6.78,5,0,8.29,3.33,8.29,8.49,0,3.74-1.43,6-4.07,8.83L55.45,132.76v11.77Z"/><path class="cls-1" d="M149.79,137.29v9.24H134.46v-9.24h-29V121.95l23.2-45.42h17.7l-23.2,45.42h11.31v-9.24h15.34v9.24H155v15.34h-5.21Z"/><path class="cls-2" d="M151.79,148.53H132.46v-9.24h-29V121.47l24-46.94h22.19l-23.2,45.42h6v-9.24h19.34v9.24H157v19.34h-5.21v9.24Zm-15.34-4h11.34v-9.24H153V123.95h-5.21v-9.24H136.46v9.24H119.88l23.2-45.42h-13.2l-22.43,43.9v12.86h29v9.24Z"/><path class="cls-2" d="M57.48,184.27c-3.86,0-7-.71-9.56-3.33l4-4c1.31,1.31,3.61,1.77,5.63,1.77,2.44,0,3.61-.81,3.61-2.27a2.1,2.1,0,0,0-.5-1.49,2.81,2.81,0,0,0-1.66-.67l-3-.42a8.53,8.53,0,0,1-5.06-2.23,7,7,0,0,1-1.74-5.06c0-4.6,3.47-8,9.21-8,3.61,0,6.34.85,8.5,3l-3.9,3.9a6.23,6.23,0,0,0-4.78-1.49c-2.16,0-3,1.24-3,2.34a1.66,1.66,0,0,0,.5,1.17,2.83,2.83,0,0,0,1.74.74l3,0.42a8.48,8.48,0,0,1,5,2.09c1.35,1.31,1.88,3.19,1.88,5.52C67.22,181.48,62.79,184.27,57.48,184.27Z"/><path class="cls-2" d="M80.39,184.27c-5.24,0-9.53-3.54-9.53-9.07V158.84h6.2v16.22c0,2.34,1.27,3.68,3.33,3.68s3.4-1.35,3.4-3.68V158.84H90v16.36C90,180.73,85.63,184.27,80.39,184.27Z"/><path class="cls-2" d="M104.64,175.07h-3.79v9h-6.2V158.84h10c5.6,0,8.61,4,8.61,8.11S110.24,175.07,104.64,175.07Zm-0.28-10.66h-3.51v5.1h3.51A2.55,2.55,0,1,0,104.36,164.4Z"/><path class="cls-2" d="M126.84,175.07h-3.79v9h-6.2V158.84h10c5.6,0,8.61,4,8.61,8.11S132.44,175.07,126.84,175.07Zm-0.28-10.66h-3.51v5.1h3.51A2.55,2.55,0,1,0,126.56,164.4Z"/><path class="cls-2" d="M154.89,181.44a10.18,10.18,0,0,1-14.1,0c-2.66-2.66-2.55-6.2-2.55-10s-0.11-7.33,2.55-10a10.18,10.18,0,0,1,14.1,0c2.66,2.66,2.55,6.2,2.55,10S157.55,178.78,154.89,181.44Zm-4.57-16.18a3.35,3.35,0,0,0-5,0c-0.57.74-.92,1.59-0.92,6.2s0.35,5.42.92,6.16a3.28,3.28,0,0,0,5,0c0.57-.74.92-1.56,0.92-6.16S150.89,166,150.32,165.25Z"/><path class="cls-2" d="M174.47,184.06L170,174.68h-2.09v9.38h-6.2V158.84h10c5.6,0,8.61,4,8.61,8.11a7.25,7.25,0,0,1-4.11,6.59l5.45,10.52h-7.19Zm-3-19.66h-3.51v5.1h3.51A2.55,2.55,0,1,0,171.42,164.4Z"/><path class="cls-2" d="M195.72,164.37v19.69h-6.2V164.37h-6.2v-5.52h18.59v5.52h-6.2Z"/><path class="cls-2" d="M178.19,146.53V132.22a2.78,2.78,0,1,0-5.53,0v14.31h-7.2V115.28h7.2v9.57a7.33,7.33,0,0,1,5.18-2.19c5.09,0,7.55,3.77,7.55,8.56v15.32h-7.2Z"/><path class="cls-2" d="M203.28,130.38a3.34,3.34,0,0,0-2.59-1.23,2.9,2.9,0,0,0-2.9,3.25v14.13h-7.2V122.92h7v1.93a8.18,8.18,0,0,1,5.57-2.19,7,7,0,0,1,5.53,2.19Z"/></svg>