<svg id="Layer_1" data-name="Layer 1" xmlns="http://www.w3.org/2000/svg" viewBox="0 0 250 250"><defs><style>.cls-1{fill:gold;}.cls-2{fill:#fff;}.cls-3{fill:#333;}</style></defs><title>whyl3n</title><g id="_Group_" data-name="&lt;Group&gt;"><g id="_Group_2" data-name="&lt;Group&gt;"><path class="cls-1" d="M172.74,151.9l3.82,4.52a1.4,1.4,0,0,0-.28.46l-1.69,4.73h-3.71l-1.68-4.74a1.73,1.73,0,0,0-.28-0.46Z"/><polygon class="cls-1" points="174.34 164.69 176.06 176.98 169.41 176.98 171.13 164.69 174.34 164.69"/><path class="cls-2" d="M165.39,160.6l1.32-1.55,1.52,4.26L166.3,177H123.64v-2.9a31.55,31.55,0,0,1,.15-3.25H144a1.25,1.25,0,0,0,1.25-1.25v-3.63c0-4.26-.58-7.35-2-9.69l11.2-3.17,8.76,7.68a1.53,1.53,0,0,0,1,.38h0.11A1.52,1.52,0,0,0,165.39,160.6Z"/><path class="cls-3" d="M182.27,160.76a1.47,1.47,0,0,1-1.13.38,1.54,1.54,0,0,1-1.06-.54L178.77,159l-1.53,4.27L179.16,177h39.77v-2.9c0-9.9-2.49-13.34-11.58-16l-16.42-4.94Zm-16.88-.16a1.52,1.52,0,0,1-1.06.54h-0.11a1.53,1.53,0,0,1-1-.38l-8.76-7.68-11.2,3.17a9.81,9.81,0,0,0-2.29-2.54l12.93-3.66,4.84-9a1.51,1.51,0,0,1,1-.76,1.54,1.54,0,0,1,.83.06v-6a2.07,2.07,0,0,1,0-.24,1.51,1.51,0,0,1,0-.36v-0.36c-5.07-4.61-9.22-12.32-9.22-19.05V117a1.53,1.53,0,0,1-1.54,1.54h-0.13c-3.75,0-7.55-2.06-7.55-6v-3.86c0-2.74,1.91-4.62,5.07-5.25h0s0-.27,0-0.83h0v-0.06c0-.35,0-0.8,0-1.38l0,0a24,24,0,0,1,23.93-22.51h3.21a24,24,0,0,1,23.93,22.51l0,0c0,0.6,0,1.08,0,1.43h0c0,0.56,0,.83,0,0.83,3.24,0.64,5.19,2.52,5.19,5.26v3.86c0,3.42-2.92,5.4-6.19,5.87l-0.42.41a24.3,24.3,0,0,1-4.29,3.39,31,31,0,0,1-4.11,7.31,26.88,26.88,0,0,1-3.42,3.76v6.94a1.85,1.85,0,0,1,.46,0,1.52,1.52,0,0,1,1,.77l4.6,8.85a1.48,1.48,0,0,1,.51.29l16.56,5c10.44,3,13.78,7.6,13.78,18.91v4.44a1.53,1.53,0,0,1-1.54,1.54H122.1a1.53,1.53,0,0,1-1.54-1.54v-4.44a32,32,0,0,1,.15-3.25h3.07a31.55,31.55,0,0,0-.15,3.25V177H166.3l1.93-13.67L166.71,159Zm35.1-48v-3.86c0-1.55-1.68-2.13-3.08-2.33v8.94C198.94,115,200.49,114.15,200.49,112.58Zm-5.28-9.21a11.28,11.28,0,0,0,0-1.25,21,21,0,0,0-20.91-20.43h-3.21A20.94,20.94,0,0,0,150.23,102a10,10,0,0,0,0,1.35h0a1.53,1.53,0,0,1,1,1.35v-0.28c0-.28,0-0.54,0-0.81a2.12,2.12,0,0,1-.08-1.17,18.78,18.78,0,0,1,1.5-5.64c2.92-7.22,10-12.08,18.63-12.08h2.89c11.27,0.1,20.05,8.71,20.05,19.69v0.24a1.5,1.5,0,0,1,.89-1.31v0Zm-3.95,10.91v-9.67a1.51,1.51,0,0,1-.37-0.83c-1-9.06-8.14-15.89-16.71-15.94h-2.79a18.81,18.81,0,0,0-3.05.29,17.42,17.42,0,0,0-12.47,9.39,16,16,0,0,0-1,3,24,24,0,0,0,7.54-4.45,1.53,1.53,0,0,1,2.05,0,27.52,27.52,0,0,0,18.06,7.12h2.6a1.54,1.54,0,1,1,0,3.07h-2.6a30.56,30.56,0,0,1-19.1-7,28.18,28.18,0,0,1-9,4.67c0,0.18-.06.35-0.06,0.53v9.83c0,8.63,8.42,20.09,14.77,20.09a4.41,4.41,0,0,0,1.67-.31,1.54,1.54,0,0,1,.58-0.11h2.7a1.54,1.54,0,0,1,.58.11,4.45,4.45,0,0,0,1.68.31c2.9,0,6.63-2.56,9.74-6.68a28.82,28.82,0,0,0,2.14-3.28A24,24,0,0,1,182,125.8a4.6,4.6,0,0,1-4.53,3.84h-3.07a4.61,4.61,0,1,1,0-9.22h3.07a4.59,4.59,0,0,1,4,2.35,20.74,20.74,0,0,0,8.71-2.58A18.2,18.2,0,0,0,191.26,114.29Zm-2.85,37-3.7-7.12a12,12,0,0,0-1.67.41,40.07,40.07,0,0,1-10.24,2.46,40,40,0,0,1-10.44-2.41l-1.62-.72-0.07,0-3.85,7.19,7.24,6.34,7.51-8.89a1.55,1.55,0,0,1,1.17-.54,1.49,1.49,0,0,1,1.17.54l7.51,8.88ZM182,141.67v-6a11.26,11.26,0,0,1-5.7,1.82,7.54,7.54,0,0,1-2.54-.43h-2.14a7.54,7.54,0,0,1-2.54.43,11,11,0,0,1-5.54-1.78v6.16A38,38,0,0,0,172.8,144,38.12,38.12,0,0,0,182,141.67ZM179,125a1.53,1.53,0,0,0-1.54-1.54h-3.07a1.54,1.54,0,0,0,0,3.07h3.07A1.53,1.53,0,0,0,179,125Zm-2.4,31.38-3.82-4.52-3.82,4.51a1.73,1.73,0,0,1,.28.46l1.68,4.74h3.71l1.69-4.73A1.4,1.4,0,0,1,176.56,156.42ZM176.05,177l-1.72-12.3h-3.21L169.41,177h6.65Zm-27.83-61.62v-9c-1.46.19-3.07,0.75-3.07,2.34v3.86C145.16,114.21,146.7,115.05,148.23,115.36Z"/><path class="cls-2" d="M145.29,165.94v3.63a1.25,1.25,0,0,1-1.25,1.25H123.79a20.74,20.74,0,0,1,.44-2.51h18.55v-2.38c0-4.19-.54-7-2.1-9l2.57-.73C144.71,158.59,145.29,161.68,145.29,165.94Z"/><path class="cls-3" d="M141,153.71a9.81,9.81,0,0,1,2.29,2.54l-2.57.73a9,9,0,0,0-2.91-2.37Z"/><path class="cls-2" d="M142.78,165.94v2.38H124.23c1.31-5.27,4.93-8,12.43-10.2l4-1.14C142.24,159,142.78,161.76,142.78,165.94Z"/><path class="cls-3" d="M137.77,154.62a9,9,0,0,1,2.91,2.37l-4,1.14c-7.5,2.17-11.12,4.93-12.43,10.2H121.1c1.42-6.81,5.84-10.59,14.71-13.15Z"/><path class="cls-3" d="M121.1,168.32h3.13a20.74,20.74,0,0,0-.44,2.51h-3.07A22,22,0,0,1,121.1,168.32Z"/><path class="cls-1" d="M105,147.8l3.12,3.7a1.2,1.2,0,0,0-.22.37l-1.38,3.87h-3l-1.37-3.88a1.32,1.32,0,0,0-.22-0.37Z"/><polygon class="cls-1" points="106.3 158.25 107.7 168.32 102.26 168.32 103.67 158.25 106.3 158.25"/><path class="cls-2" d="M100.05,153.65l1.24,3.48-1.57,11.19H64.82v-2.38a20.26,20.26,0,0,1,.43-4.48H85.63a1,1,0,0,0,1-1v-2.81c0-3.28-.45-5.68-1.56-7.49l5-1.41,7.16,6.28a1.27,1.27,0,0,0,.83.31h0.1a1.24,1.24,0,0,0,.87-0.44Z"/><path class="cls-2" d="M85.63,161.46H65.25a11.63,11.63,0,0,1,.63-1.95H84.66v-1.84c0-3.23-.42-5.38-1.62-6.93l2-.56c1.12,1.81,1.56,4.21,1.56,7.49v2.81A1,1,0,0,1,85.63,161.46Z"/><path class="cls-2" d="M84.66,157.67v1.84H65.88c1.4-3.22,4.33-5.1,9.6-6.62L83,150.75C84.24,152.29,84.66,154.44,84.66,157.67Z"/><path class="cls-3" d="M85,150.19l-2,.56a6.93,6.93,0,0,0-2.42-1.93l2.52-.72A7.87,7.87,0,0,1,85,150.19Z"/><path class="cls-3" d="M63.2,159.51c1.52-4.51,5.09-7.17,11.57-9l5.84-1.65A6.93,6.93,0,0,1,83,150.75l-7.56,2.15c-5.27,1.52-8.19,3.4-9.6,6.62H63.2Z"/><path class="cls-3" d="M63.2,159.51h2.67a11.63,11.63,0,0,0-.63,1.95H62.69A14.49,14.49,0,0,1,63.2,159.51Z"/><path class="cls-3" d="M108.83,124.56h-2.52a1.26,1.26,0,0,0,0,2.52h2.52A1.26,1.26,0,0,0,108.83,124.56Zm18.86-8.94v-3.16c0-1.27-1.37-1.74-2.52-1.9v7.31C126.42,117.6,127.69,116.91,127.69,115.62Zm-23.56,20A6.35,6.35,0,0,1,102,136a8.91,8.91,0,0,1-4.53-1.47v5a31,31,0,0,0,7.53,1.77,30.74,30.74,0,0,0,7.56-1.91v-4.94A9.14,9.14,0,0,1,108,136h0a6.35,6.35,0,0,1-2.08-.35h-1.74Zm-2,16.24,1.37,3.88h3l1.38-3.87a1.2,1.2,0,0,1,.22-0.37L105,147.8l-3.12,3.69A1.32,1.32,0,0,1,102.1,151.86Zm1.57,6.39-1.41,10.06h5.45l-1.4-10.06h-2.63ZM92,147.12l5.92,5.19L104,145a1.22,1.22,0,0,1,1-.45,1.25,1.25,0,0,1,1,.45l6.14,7.27,5.7-5-3-5.82a9.75,9.75,0,0,0-1.37.33,32.4,32.4,0,0,1-8.37,2,32.75,32.75,0,0,1-8.54-2l-1.33-.59-0.06,0ZM90,117c0,7.07,6.89,16.44,12.07,16.44a3.66,3.66,0,0,0,1.37-.26,1.18,1.18,0,0,1,.48-0.1h2.2a1.18,1.18,0,0,1,.48.1,3.66,3.66,0,0,0,1.37.26c2.38,0,5.43-2.09,8-5.47a23,23,0,0,0,1.75-2.68,19.43,19.43,0,0,1-5.13,1.13,3.76,3.76,0,0,1-3.7,3.15h-2.52a3.77,3.77,0,0,1,0-7.55h2.52a3.76,3.76,0,0,1,3.26,1.92,17,17,0,0,0,7.12-2.1,14.82,14.82,0,0,0,.93-4.85v-7.91a1.3,1.3,0,0,1-.31-0.68c-0.78-7.41-6.66-13-13.67-13h-2.28a15.31,15.31,0,0,0-2.5.24,14.23,14.23,0,0,0-10.21,7.67,13.46,13.46,0,0,0-.82,2.5,19.48,19.48,0,0,0,6.16-3.65,1.28,1.28,0,0,1,1.68,0A22.53,22.53,0,0,0,113,108h2.14a1.25,1.25,0,1,1,0,2.51H113a25,25,0,0,1-15.63-5.74A23,23,0,0,1,90,108.55c0,0.15,0,.29,0,0.44v8Zm-5,.88v-7.35c-1.19.16-2.51,0.62-2.51,1.92v3.16C82.43,117,83.69,117.65,84.93,117.9ZM86.58,107a10.8,10.8,0,0,0,0,1.1h0a1.25,1.25,0,0,1,.84,1.11V109c0-.22,0-0.44,0-0.67a1.78,1.78,0,0,1-.07-1,15.5,15.5,0,0,1,1.23-4.62,16,16,0,0,1,15.24-9.87h2.37C115.47,93,122.66,100,122.66,109v0.2a1.19,1.19,0,0,1,.72-1.07v0a9.43,9.43,0,0,0,0-1,17.14,17.14,0,0,0-17.1-16.72h-2.63A17.14,17.14,0,0,0,86.58,107Zm34.14,63.83H63.56a1.25,1.25,0,0,1-1.25-1.25v-3.63a23.89,23.89,0,0,1,.38-4.48h2.56a20.26,20.26,0,0,0-.43,4.48v2.38h34.9l1.57-11.19-1.24-3.48L99,154.92a1.24,1.24,0,0,1-.87.44H98a1.27,1.27,0,0,1-.83-0.31L90,148.77l-5,1.41a7.87,7.87,0,0,0-1.91-2.08l6.44-1.82,3.95-7.37a1.28,1.28,0,0,1,.8-0.62,1.26,1.26,0,0,1,.68,0V133.4a1.14,1.14,0,0,1,0-.19,1,1,0,0,1,0-.3v-0.3c-4.15-3.76-7.52-10-7.54-15.54v2.2a1.26,1.26,0,0,1-1.26,1.26h-0.1c-3.07,0-6.18-1.69-6.18-4.91v-3.16c0-2.24,1.56-3.78,4.16-4.29h0s0-.21,0-0.68h0v0c0-.29,0-0.66,0-1.13l0,0a19.65,19.65,0,0,1,19.57-18.43h2.63a19.65,19.65,0,0,1,19.57,18.43l0,0c0,0.49,0,.88,0,1.16h0c0,0.46,0,.68,0,0.68h0c2.66,0.52,4.26,2,4.26,4.29v3.16c0,2.8-2.39,4.42-5.07,4.8l-0.34.34a19.82,19.82,0,0,1-3.51,2.77,25.59,25.59,0,0,1-3.37,6,22,22,0,0,1-2.8,3.07v5.69a1.62,1.62,0,0,1,.37,0,1.25,1.25,0,0,1,.8.64l3.76,7.24a1.29,1.29,0,0,1,.42.23L134,150.47a19.63,19.63,0,0,1,6.94,3.24l-3.19.91a22.4,22.4,0,0,0-4.46-1.73l-13.44-4-7.07,6.2a1.18,1.18,0,0,1-.93.31,1.24,1.24,0,0,1-.87-0.44l-1.08-1.28-1.25,3.49,1.56,11.19H121.1A22,22,0,0,0,120.72,170.83Z"/><path class="cls-1" d="M55.41,143.63l2.41,2.86a1.09,1.09,0,0,0-.17.29l-1.07,3H54.23l-1.06-3a1,1,0,0,0-.17-0.28Z"/><polygon class="cls-1" points="56.42 151.72 57.51 159.51 53.29 159.51 54.39 151.72 56.42 151.72"/><path class="cls-3" d="M56.42,151.72h-2l-1.1,7.79h4.22Zm1.4-5.23-2.41-2.86L53,146.49a1,1,0,0,1,.17.28l1.06,3h2.36l1.07-3A1.09,1.09,0,0,1,57.82,146.49Zm0.55-20.85H56.43a1,1,0,0,0,0,1.95h1.95A1,1,0,0,0,58.38,125.64ZM43.82,144.38l-11.27,3.2c-6.24,1.8-8.24,4.25-8.24,10.1v1.84h27l1.22-8.66-1-2.7-0.83,1a1,1,0,0,1-.67.34H50a0.93,0.93,0,0,1-.64-0.25Zm-5.89-25.65c0,1,1,1.56,1.95,1.76v-5.69c-0.93.12-1.95,0.49-1.95,1.48v2.45Zm35,0v-2.45c0-1-1.07-1.35-2-1.47v5.67C72,120.25,73,119.72,73,118.72Zm-16.6-17.61a12.5,12.5,0,0,1,12.7,12.47v0.1a1,1,0,0,1,.56-0.77h0a7.61,7.61,0,0,0,0-.79A13.27,13.27,0,0,0,56.42,99.16h-2A13.26,13.26,0,0,0,41.15,112c0,0.61,0,.86,0,0.86h0a1,1,0,0,1,.65.85v-0.17c0-.17,0-0.34,0-0.52a1.39,1.39,0,0,1-.06-0.74,12,12,0,0,1,1-3.57,12.41,12.41,0,0,1,11.8-7.65h1.83Zm4.91,36v-3.83a7.1,7.1,0,0,1-3.6,1.15h0a4.75,4.75,0,0,1-1.6-.27H54.73a4.75,4.75,0,0,1-1.6.27,6.94,6.94,0,0,1-3.51-1.13v3.9a23.76,23.76,0,0,0,5.83,1.37A23.79,23.79,0,0,0,61.3,137.14Zm4,6.11L63,138.74a8.78,8.78,0,0,0-1.06.26,24.88,24.88,0,0,1-6.48,1.56A25.66,25.66,0,0,1,48.84,139l-1-.46,0,0-2.44,4.55,4.58,4,4.76-5.63a1,1,0,0,1,1.49,0l4.76,5.63Zm-4.43-18.08a13.24,13.24,0,0,0,5.51-1.62,11.68,11.68,0,0,0,.72-3.75v-6.12a1.18,1.18,0,0,1-.21-0.37l0-.15a10.94,10.94,0,0,0-10.58-10.09H54.55a11.69,11.69,0,0,0-1.94.18,11,11,0,0,0-7.9,5.94,10.87,10.87,0,0,0-.64,1.93,15.13,15.13,0,0,0,4.78-2.82,1,1,0,0,1,1.3,0,17.44,17.44,0,0,0,11.44,4.51h1.65a1,1,0,0,1,.9.59,1,1,0,0,1,.08.38,1,1,0,0,1-1,1H61.59a19.34,19.34,0,0,1-12.1-4.45,17.61,17.61,0,0,1-5.69,3c0,0.11,0,.23,0,0.34v6.22c0,5.48,5.33,12.73,9.35,12.73a2.79,2.79,0,0,0,1.06-.2,1,1,0,0,1,.37-0.07h1.71a1,1,0,0,1,.37.07,2.79,2.79,0,0,0,1.06.2c1.84,0,4.2-1.61,6.17-4.23a18,18,0,0,0,1.35-2.08,15.14,15.14,0,0,1-4,.88,2.93,2.93,0,0,1-2.87,2.43H56.43a2.92,2.92,0,1,1,0-5.84h1.95A2.92,2.92,0,0,1,60.91,125.17Zm3.25,11.59,2.91,5.61a1,1,0,0,1,.31.17l10.49,3.16a15.69,15.69,0,0,1,5.26,2.4l-2.52.72a17.39,17.39,0,0,0-3.29-1.25l-10.4-3.13-5.48,4.8a0.9,0.9,0,0,1-.72.24,1,1,0,0,1-.67-0.34l-0.84-1-1,2.7,1.21,8.66H63.2a14.49,14.49,0,0,0-.52,1.95H23.33a1,1,0,0,1-1-1v-2.81c0-6.7,2.62-9.94,9.66-12l11.45-3.24,3.06-5.71a1,1,0,0,1,.62-0.48,0.94,0.94,0,0,1,.52,0v-3.82s0-.1,0-0.15a0.93,0.93,0,0,1,0-.23v-0.23c-3.21-2.92-5.84-7.8-5.84-12.07v1.75a1,1,0,0,1-1,1H40.78c-2.38,0-4.79-1.31-4.79-3.8v-2.45c0-1.73,1.21-2.92,3.21-3.32h0s0-.16,0-0.52v0c0-.22,0-0.51,0-0.88l0,0A15.22,15.22,0,0,1,54.39,97.21h2a15.22,15.22,0,0,1,15.16,14.26l0,0c0,0.38,0,.68,0,0.91h0v0.52h0c2.06,0.4,3.3,1.58,3.3,3.32v2.45c0,2.17-1.85,3.42-3.92,3.71l-0.27.27A15.38,15.38,0,0,1,68,124.85a20.15,20.15,0,0,1-2.6,4.63,17,17,0,0,1-2.17,2.38v4.41a0.77,0.77,0,0,1,.3,0A1,1,0,0,1,64.16,136.76Z"/></g></g></svg>